<?xml version="1.0" encoding="UTF-8"?>
<svg xmlns="http://www.w3.org/2000/svg" viewBox="0 0 128 128" role="img" aria-label="Node.js">
  <defs>
    <linearGradient id="g" x1="0" y1="0" x2="1" y2="1">
      <stop offset="0%" stop-color="#3C873A"/>
      <stop offset="100%" stop-color="#2A5E2C"/>
    </linearGradient>
  </defs>
  <rect width="128" height="128" rx="16" fill="url(#g)"/>
  <g transform="translate(16, 16)">
    <path fill="#ffffff" d="M48 4c1.2 0 2.3.3 3.3.9l37.6 21.7c2 1.1 3.3 3.3 3.3 5.6v43.6c0 2.3-1.3 4.5-3.3 5.6L51.3 103.1c-2 1.1-4.6 1.1-6.6 0L7.1 81.4C5.1 80.3 3.8 78.1 3.8 75.8V32.2c0-2.3 1.3-4.5 3.3-5.6L44.7 4.9C45.7 4.3 46.8 4 48 4zm0 8.3L14.6 31.2v41.6L48 99.7l33.4-26.9V31.2L48 12.3z"/>
    <path fill="#ffffff" d="M35.5 53.8c0-8.7 6.6-15.1 15.8-15.1 6.4 0 10.7 2.8 13 7l-6.9 3.9c-1-1.9-3-3.1-6.1-3.1-4.5 0-7.6 3.2-7.6 7.4 0 4.2 3.1 7.4 7.6 7.4 3.1 0 5.2-1.2 6.1-3.1l6.9 3.9c-2.3 4.2-6.6 7-13 7-9.2 0-15.8-6.4-15.8-15.1z"/>
    <circle cx="78" cy="58" r="6" fill="#ffffff"/>
  </g>
</svg>
